<svg version="1.1" id="Calque_1" xmlns="http://www.w3.org/2000/svg" xmlns:xlink="http://www.w3.org/1999/xlink" x="0px" y="0px"
	 viewBox="0 0 107 107" enable-background="new 0 0 107 107" xml:space="preserve">
<path fill="#E2E2E6" d="M63,104.2h-0.3c-11.5,0-18.9-12.1-13.7-22.4l27.8-54.3c2.6-5.1,7.9-8.4,13.7-8.4h0.3
	c11.5,0,18.9,12.1,13.7,22.4L76.7,95.9C74,101,68.8,104.2,63,104.2z"/>
<path fill="#E2E2E6" d="M30.7,87.8h-0.3c-11.5,0-18.9-12.1-13.7-22.4l27.8-54.3c2.6-5.1,7.9-8.4,13.7-8.4h0.3
	c11.5,0,18.9,12.1,13.7,22.4L44.4,79.4C41.8,84.5,36.5,87.8,30.7,87.8z"/>
<path fill="#E2E2E6" stroke="#E2E2E6" stroke-miterlimit="10" d="M43.8,79.4l-0.2,0.3c-2.6,5.2-7.9,8.4-13.7,8.4l-13.7-0.1
	C4.9,87.8-2.4,75.9,2.8,65.7l0.2-0.3c2.6-5.2,7.9-8.4,13.7-8.4l13.7,0.1C41.7,57.2,49,69.2,43.8,79.4z"/>
</svg>
