<svg xmlns="http://www.w3.org/2000/svg" xmlns:xlink="http://www.w3.org/1999/xlink" version="1.1" id="Calque_1" x="0px" y="0px" viewBox="0 0 105.5 105.5" enable-background="new 0 0 105.5 105.5" xml:space="preserve">
<path fill="#E2E2E6" d="M62.4 101.4H62c-11.5 0-18.9-12.1-13.7-22.4l27.8-54.3c2.6-5.1 7.9-8.4 13.7-8.4h0.3 c11.5 0 18.9 12.1 13.7 22.4L76.1 93.1C73.4 98.2 68.2 101.4 62.4 101.4z"/>
<path fill="#E2E2E6" d="M30.1 85h-0.3c-11.5 0-18.9-12.1-13.7-22.4L43.9 8.4C46.5 3.2 51.8 0 57.5 0l0.3 0 c11.5 0 18.9 12.1 13.7 22.4L43.8 76.6C41.2 81.8 35.9 85 30.1 85z"/>
<path fill="#E2E2E6" stroke="#E2E2E6" stroke-miterlimit="10" d="M43.2 76.6l-0.2 0.3c-2.6 5.2-7.9 8.4-13.7 8.4l-13.7-0.1 C4.3 85.1-3 73.1 2.2 63l0.2-0.3c2.6-5.2 7.9-8.4 13.7-8.4l13.7 0.1C41.1 54.5 48.4 66.5 43.2 76.6z"/>
</svg>
